<svg aria-hidden="true" style="position: absolute; width: 0; height: 0; overflow: hidden;" version="1.1" xmlns="http://www.w3.org/2000/svg" xmlns:xlink="http://www.w3.org/1999/xlink">
<defs>
<symbol id="icon-github" viewBox="0 0 32 32">
<path d="M12.467 22.507c0 0.093-0.093 0.16-0.227 0.16s-0.24 0-0.24-0.16c0-0.16 0.107-0.16 0.227-0.16s0.24 0.067 0.24 0.16zM11.133 22.307c0 0.093 0 0.2 0.187 0.227 0.048 0.023 0.103 0.026 0.153 0.009s0.091-0.054 0.114-0.102c0-0.093 0-0.187-0.187-0.227s-0.24 0-0.267 0.093zM13.027 22.24c-0.12 0-0.2 0.107-0.187 0.213s0.12 0.147 0.253 0.12c0.133-0.027 0.2-0.12 0.187-0.213s-0.12-0.133-0.253-0.12zM15.867 5.333c-1.406-0.013-2.8 0.258-4.099 0.797s-2.475 1.335-3.459 2.34c-0.984 1.005-1.754 2.198-2.265 3.508s-0.752 2.71-0.709 4.115c-0.037 2.303 0.646 4.559 1.953 6.455s3.175 3.335 5.34 4.119c0.547 0.093 0.747-0.253 0.747-0.533s0-1.787 0-2.667c0 0-3.013 0.667-3.653-1.333 0 0-0.48-1.333-1.187-1.613 0 0-0.987-0.693 0.067-0.68 0.345 0.047 0.674 0.173 0.961 0.37s0.524 0.458 0.692 0.763c0.139 0.273 0.333 0.516 0.57 0.711s0.51 0.341 0.805 0.427 0.604 0.111 0.909 0.074c0.305-0.038 0.598-0.137 0.863-0.292 0.051-0.557 0.291-1.079 0.68-1.48-2.4-0.28-4.827-0.627-4.827-4.88-0.025-0.481 0.052-0.961 0.226-1.409s0.443-0.854 0.787-1.191c-0.324-0.976-0.287-2.036 0.107-2.987 0.907-0.293 2.973 1.187 2.973 1.187 1.766-0.498 3.635-0.498 5.4 0 0 0 2.067-1.48 2.973-1.187 0.402 0.949 0.44 2.012 0.107 2.987 0.356 0.332 0.639 0.735 0.829 1.183s0.285 0.931 0.277 1.417c0 4.267-2.533 4.6-4.933 4.88 0.241 0.271 0.425 0.587 0.539 0.931s0.158 0.707 0.127 1.069c0 1.493 0 3.333 0 3.693-0.001 0.090 0.020 0.179 0.061 0.259s0.1 0.15 0.174 0.202c0.073 0.052 0.158 0.086 0.247 0.099s0.18 0.003 0.265-0.027c2.162-0.776 4.025-2.212 5.326-4.104s1.976-4.146 1.927-6.442c0.013-1.42-0.259-2.828-0.797-4.142s-1.335-2.507-2.34-3.509c-1.006-1.002-2.202-1.793-3.518-2.327s-2.725-0.8-4.145-0.782zM9.52 20.547c0 0 0 0.147 0 0.227 0.015 0.015 0.033 0.027 0.052 0.035s0.040 0.012 0.061 0.012 0.042-0.004 0.061-0.012c0.019-0.008 0.037-0.020 0.052-0.035 0 0 0-0.147 0-0.24s-0.173-0.040-0.227 0.013zM9.053 20.187c0 0 0 0.133 0.093 0.173 0.011 0.014 0.025 0.025 0.042 0.033s0.034 0.012 0.052 0.012 0.036-0.004 0.052-0.012c0.016-0.008 0.030-0.019 0.042-0.033 0 0 0-0.133-0.093-0.173s-0.16-0.040-0.187 0zM10.387 21.76c0 0 0 0.187 0 0.28s0.227 0.107 0.28 0c0.053-0.107 0-0.187 0-0.28s-0.173-0.067-0.227 0h-0.053zM9.893 21.107c0 0 0 0.16 0 0.267s0.187 0.147 0.253 0.107c0.034-0.039 0.052-0.089 0.052-0.14s-0.019-0.101-0.052-0.14c-0.067-0.107-0.173-0.147-0.253-0.093z"></path>
</symbol>
<symbol id="icon-telegram" viewBox="0 0 32 32">
<path d="M27.613 4.873c0 0 2.59-1.010 2.374 1.443-0.072 1.010-0.719 4.545-1.223 8.369l-1.727 11.326c0 0-0.144 1.659-1.439 1.948s-3.238-1.010-3.598-1.299c-0.288-0.216-5.396-3.463-7.195-5.050-0.504-0.433-1.079-1.299 0.072-2.309l7.555-7.214c0.863-0.866 1.727-2.886-1.871-0.433l-10.073 6.854c0 0-1.151 0.721-3.31 0.072l-4.677-1.443c0 0-1.727-1.082 1.223-2.164 7.195-3.391 16.045-6.854 23.887-10.1z"></path>
</symbol>
<symbol id="icon-mail" viewBox="0 0 32 32">
<path d="M27.843 24.273l3.577-1.789-9.731-3.585 3.585 9.731 1.789-3.577 3.75 3.75c0.108 0.108 0.249 0.162 0.39 0.162s0.282-0.054 0.39-0.162c0.216-0.216 0.216-0.564 0-0.78l-3.75-3.75zM23.552 20.762l5.094 1.877-2.145 1.072-1.072 2.145-1.877-5.094z"></path>
<path d="M31.997 3.574c-0.001-0.061-0.010-0.122-0.033-0.182-0.002-0.004-0.004-0.007-0.006-0.010-0.006-0.015-0.016-0.027-0.023-0.041-0.023-0.045-0.049-0.086-0.082-0.121-0.014-0.016-0.030-0.029-0.046-0.043-0.034-0.030-0.071-0.055-0.111-0.075-0.018-0.009-0.035-0.019-0.054-0.026-0.062-0.023-0.126-0.039-0.194-0.039h-30.897c-0.068 0-0.132 0.016-0.194 0.039-0.019 0.007-0.036 0.017-0.054 0.026-0.040 0.020-0.077 0.045-0.112 0.075-0.016 0.014-0.031 0.027-0.045 0.043-0.033 0.036-0.060 0.077-0.082 0.122-0.007 0.014-0.017 0.026-0.023 0.041-0.002 0.003-0.004 0.007-0.006 0.010-0.023 0.060-0.031 0.121-0.033 0.182 0 0.005-0.002 0.009-0.002 0.013v21.517c0 0.002 0.001 0.003 0.001 0.005 0.001 0.059 0.009 0.118 0.029 0.176 0.002 0.007 0.007 0.012 0.010 0.019 0.007 0.019 0.019 0.035 0.028 0.052 0.022 0.041 0.045 0.078 0.076 0.112 0.015 0.017 0.031 0.032 0.049 0.047 0.033 0.029 0.070 0.053 0.109 0.073 0.019 0.010 0.036 0.020 0.056 0.028 0.061 0.023 0.126 0.039 0.194 0.039h19.31c0.305 0 0.552-0.247 0.552-0.552s-0.247-0.552-0.552-0.552h-17.722c2.509-1.988 8.166-6.5 11.073-9.050l0.784 0.692c0.553 0.493 1.278 0.74 2.004 0.74 0.724 0 1.449-0.246 2-0.738l12.895-11.386v15.328c0 0.305 0.247 0.552 0.552 0.552s0.552-0.247 0.552-0.552v-16.552c0-0.004-0.002-0.008-0.003-0.013zM1.103 23.965v-19.155l11.276 9.956c-3.065 2.678-9.021 7.415-11.276 9.199zM17.268 15.371c-0.699 0.625-1.838 0.625-2.539-0.002l-1.092-0.964c-0.003-0.004-0.004-0.008-0.007-0.012-0.012-0.014-0.029-0.019-0.042-0.032l-11.578-10.223h27.98l-12.722 11.233z"></path>
</symbol>
<symbol id="icon-linkedin" viewBox="0 0 32 32">
<path d="M16 12.733c1.223-1.249 2.815-2.067 4.667-2.067 4.050 0 7.333 3.283 7.333 7.333v0 10h-2.667v-10c0-2.577-2.089-4.667-4.667-4.667s-4.667 2.089-4.667 4.667v0 10h-2.667v-16.667h2.667v1.4zM6.667 8.667c-1.105 0-2-0.895-2-2s0.895-2 2-2v0c1.105 0 2 0.895 2 2s-0.895 2-2 2v0zM5.333 11.333h2.667v16.667h-2.667v-16.667z"></path>
</symbol>
<symbol id="icon-location" viewBox="0 0 32 32">
<path d="M16.114-0.011c-6.559 0-12.114 5.587-12.114 12.204 0 6.93 6.439 14.017 10.77 18.998 0.017 0.020 0.717 0.797 1.579 0.797h0.076c0.863 0 1.558-0.777 1.575-0.797 4.064-4.672 10-12.377 10-18.998 0-6.618-4.333-12.204-11.886-12.204zM16.515 29.849c-0.035 0.035-0.086 0.074-0.131 0.107-0.046-0.032-0.096-0.072-0.133-0.107l-0.523-0.602c-4.106-4.71-9.729-11.161-9.729-17.055 0-5.532 4.632-10.205 10.114-10.205 6.829 0 9.886 5.125 9.886 10.205 0 4.474-3.192 10.416-9.485 17.657zM16.035 6.044c-3.313 0-6 2.686-6 6s2.687 6 6 6 6-2.687 6-6-2.686-6-6-6zM16.035 16.044c-2.206 0-4.046-1.838-4.046-4.044s1.794-4 4-4c2.207 0 4 1.794 4 4 0.001 2.206-1.747 4.044-3.954 4.044z"></path>
</symbol>
<symbol id="icon-phone" viewBox="0 0 32 32">
<path d="M8.194 1.156c1.169 1.612 2.563 3.694 4.175 6.237 0.406 0.688 0.344 1.512-0.181 2.481-0.2 0.406-0.706 1.331-1.512 2.787 0.887 1.25 2.238 2.787 4.056 4.6s3.331 3.169 4.538 4.056c1.45-0.85 2.381-1.369 2.788-1.575 0.525-0.281 1.031-0.425 1.512-0.425 0.363 0 0.688 0.081 0.969 0.244 1.856 1.131 3.956 2.525 6.294 4.175 0.444 0.325 0.694 0.769 0.756 1.331 0.063 0.569-0.113 1.169-0.512 1.819-0.2 0.281-0.525 0.694-0.969 1.244-0.444 0.544-1.113 1.231-2 2.056s-1.613 1.244-2.181 1.244h-0.063c-4.269-0.169-9.531-3.369-15.762-9.6-6.237-6.238-9.438-11.494-9.6-15.769 0-0.563 0.412-1.3 1.244-2.212 0.825-0.906 1.506-1.563 2.025-1.969 0.525-0.4 0.969-0.725 1.331-0.969 0.444-0.325 0.95-0.481 1.513-0.481 0.694 0 1.212 0.244 1.581 0.725zM6.194 2.425c-0.85 0.606-1.644 1.287-2.394 2.031-0.744 0.75-1.181 1.3-1.3 1.662 0.163 3.756 3.156 8.537 8.988 14.35s10.625 8.819 14.375 9.019c0.325-0.119 0.856-0.563 1.606-1.331s1.425-1.575 2.025-2.419c0.119-0.163 0.163-0.3 0.119-0.425-2.419-1.694-4.438-3.044-6.056-4.056-0.163 0-0.363 0.063-0.606 0.181-0.363 0.2-1.269 0.706-2.725 1.512l-1.031 0.606-1.031-0.669c-1.331-0.925-2.944-2.363-4.844-4.3-1.894-1.894-3.306-3.512-4.238-4.844l-0.725-0.969 0.606-1.088c0.806-1.45 1.313-2.363 1.512-2.725 0.119-0.244 0.181-0.444 0.181-0.606-1.438-2.294-2.769-4.313-3.981-6.050h-0.063c-0.156 0-0.3 0.044-0.419 0.119z"></path>
</symbol>
</defs>
</svg>
